<svg width="237" height="53" viewBox="0 0 237 53" fill="none" xmlns="http://www.w3.org/2000/svg">
<path d="M14.508 38.36C12.204 38.36 10.14 37.856 8.316 36.848C6.516 35.84 5.1 34.472 4.068 32.744C3.036 30.992 2.52 29 2.52 26.768C2.52 24.92 2.844 23.216 3.492 21.656C4.164 20.096 5.088 18.74 6.264 17.588C7.464 16.412 8.832 15.5 10.368 14.852C11.904 14.204 13.56 13.88 15.336 13.88C16.584 13.88 17.652 13.952 18.54 14.096C19.428 14.24 20.22 14.444 20.916 14.708C21.612 14.972 22.308 15.272 23.004 15.608L23.184 21.548H22.608L20.268 17.516C19.26 16.82 18.396 16.34 17.676 16.076C16.98 15.812 16.176 15.68 15.264 15.68C13.416 15.68 11.772 16.088 10.332 16.904C8.892 17.696 7.764 18.8 6.948 20.216C6.132 21.608 5.724 23.192 5.724 24.968C5.724 27.368 6.156 29.408 7.02 31.088C7.908 32.768 9.096 34.052 10.584 34.94C12.072 35.828 13.728 36.272 15.552 36.272C16.344 36.272 17.1 36.224 17.82 36.128C18.564 36.032 19.332 35.828 20.124 35.516V29.576L16.92 28.136V27.56H25.848V28.136L23.364 29.684V35.336C22.26 36.248 20.892 36.98 19.26 37.532C17.652 38.084 16.068 38.36 14.508 38.36ZM75.8036 32.888C74.7476 32.888 73.7756 32.696 72.8876 32.312C72.4076 32.504 72.0596 32.756 71.8436 33.068C71.6516 33.38 71.5556 33.716 71.5556 34.076C71.5556 35.276 72.4076 35.876 74.1116 35.876H78.4316C80.1836 35.876 81.4676 36.26 82.2836 37.028C83.1236 37.796 83.5436 38.936 83.5436 40.448C83.5436 41.48 83.1956 42.464 82.4996 43.4C81.8276 44.36 80.8556 45.14 79.5836 45.74C78.3356 46.34 76.8476 46.64 75.1196 46.64C72.8396 46.64 71.1956 46.22 70.1876 45.38C69.2036 44.564 68.7116 43.556 68.7116 42.356C68.7116 41.468 68.9276 40.7 69.3596 40.052L71.8436 38.396V38.252C70.9316 38.06 70.2356 37.712 69.7556 37.208C69.2756 36.68 69.0356 36.044 69.0356 35.3C69.0356 34.388 69.3476 33.62 69.9716 32.996L71.9156 31.988V31.772C71.1476 31.268 70.5356 30.62 70.0796 29.828C69.6236 29.036 69.3956 28.148 69.3956 27.164C69.3956 26.084 69.6716 25.112 70.2236 24.248C70.7756 23.384 71.5316 22.7 72.4916 22.196C73.4756 21.692 74.5796 21.44 75.8036 21.44C76.3076 21.44 76.8476 21.5 77.4236 21.62C78.0236 21.74 78.5396 21.896 78.9716 22.088L84.3716 21.8V23.744L81.0236 23.528L80.8796 23.672C81.2636 24.104 81.5756 24.632 81.8156 25.256C82.0796 25.88 82.2116 26.516 82.2116 27.164C82.2116 28.244 81.9356 29.216 81.3836 30.08C80.8316 30.944 80.0636 31.628 79.0796 32.132C78.1196 32.636 77.0276 32.888 75.8036 32.888ZM76.1636 31.412C77.1236 31.412 77.8796 31.004 78.4316 30.188C78.9836 29.348 79.2596 28.376 79.2596 27.272C79.2596 25.952 78.8996 24.896 78.1796 24.104C77.4596 23.288 76.5836 22.88 75.5516 22.88C74.5196 22.88 73.7276 23.3 73.1756 24.14C72.6236 24.956 72.3476 25.928 72.3476 27.056C72.3476 28.304 72.7076 29.348 73.4276 30.188C74.1476 31.004 75.0596 31.412 76.1636 31.412ZM71.2676 41.96C71.2676 43.016 71.6756 43.892 72.4916 44.588C73.3316 45.284 74.3516 45.632 75.5516 45.632C76.6316 45.632 77.5676 45.416 78.3596 44.984C79.1756 44.576 79.7996 44.024 80.2316 43.328C80.6876 42.656 80.9156 41.936 80.9156 41.168C80.9156 40.112 80.6276 39.38 80.0516 38.972C79.4996 38.564 78.4916 38.36 77.0276 38.36H73.1756C73.1036 38.36 73.0436 38.36 72.9956 38.36C72.3476 38.744 71.8916 39.224 71.6276 39.8C71.3876 40.4 71.2676 41.12 71.2676 41.96ZM142.088 38.36C139.64 38.36 137.528 37.856 135.752 36.848C133.976 35.84 132.608 34.472 131.648 32.744C130.688 30.992 130.208 29 130.208 26.768C130.208 25.064 130.532 23.444 131.18 21.908C131.852 20.348 132.752 18.968 133.88 17.768C135.032 16.568 136.352 15.62 137.84 14.924C139.352 14.228 140.948 13.88 142.628 13.88C143.828 13.88 144.848 13.964 145.688 14.132C146.528 14.276 147.272 14.48 147.92 14.744C148.592 14.984 149.264 15.272 149.936 15.608L150.116 21.908H149.468L147.272 17.516C146.36 16.868 145.556 16.4 144.86 16.112C144.188 15.824 143.42 15.68 142.556 15.68C140.828 15.68 139.28 16.112 137.912 16.976C136.568 17.84 135.5 19.028 134.708 20.54C133.94 22.028 133.556 23.744 133.556 25.688C133.556 27.968 133.928 29.924 134.672 31.556C135.44 33.164 136.46 34.4 137.732 35.264C139.028 36.104 140.456 36.524 142.016 36.524C143.336 36.524 144.44 36.344 145.328 35.984C146.24 35.6 147.044 35.18 147.74 34.724L149.9 30.872H150.512L150.116 36.596C149.42 36.956 148.7 37.268 147.956 37.532C147.236 37.796 146.408 38 145.472 38.144C144.536 38.288 143.408 38.36 142.088 38.36Z" fill="#4285F4"/>
<path d="M37.3528 38.36C35.7688 38.36 34.3768 37.988 33.1768 37.244C32.0008 36.5 31.0768 35.492 30.4048 34.22C29.7568 32.948 29.4328 31.508 29.4328 29.9C29.4328 28.292 29.7568 26.852 30.4048 25.58C31.0768 24.308 32.0008 23.3 33.1768 22.556C34.3768 21.812 35.7688 21.44 37.3528 21.44C38.9368 21.44 40.3168 21.812 41.4928 22.556C42.6928 23.3 43.6168 24.308 44.2648 25.58C44.9368 26.852 45.2728 28.292 45.2728 29.9C45.2728 31.508 44.9368 32.948 44.2648 34.22C43.6168 35.492 42.6928 36.5 41.4928 37.244C40.3168 37.988 38.9368 38.36 37.3528 38.36ZM37.8568 36.812C38.8168 36.812 39.6088 36.512 40.2328 35.912C40.8568 35.312 41.3128 34.544 41.6008 33.608C41.8888 32.648 42.0328 31.652 42.0328 30.62C42.0328 29.348 41.8528 28.124 41.4928 26.948C41.1568 25.772 40.6048 24.812 39.8368 24.068C39.0928 23.324 38.1208 22.952 36.9208 22.952C35.9368 22.952 35.1328 23.252 34.5088 23.852C33.8848 24.452 33.4168 25.22 33.1048 26.156C32.8168 27.092 32.6728 28.088 32.6728 29.144C32.6728 30.416 32.8528 31.64 33.2128 32.816C33.5728 33.992 34.1368 34.952 34.9048 35.696C35.6728 36.44 36.6568 36.812 37.8568 36.812ZM106.074 38.36C103.746 38.36 101.91 37.652 100.566 36.236C99.222 34.82 98.55 32.948 98.55 30.62C98.55 28.82 98.898 27.236 99.594 25.868C100.314 24.476 101.25 23.396 102.402 22.628C103.578 21.836 104.85 21.44 106.218 21.44C108.114 21.44 109.602 22.1 110.682 23.42C111.786 24.74 112.338 26.636 112.338 29.108L112.158 29.288H101.394C101.418 30.392 101.634 31.436 102.042 32.42C102.45 33.38 103.098 34.16 103.986 34.76C104.898 35.36 106.11 35.66 107.622 35.66C108.942 35.66 110.49 35.18 112.266 34.22H112.374V34.58C111.822 35.612 110.994 36.5 109.89 37.244C108.81 37.988 107.538 38.36 106.074 38.36ZM105.642 23.024C104.49 23.024 103.542 23.432 102.798 24.248C102.078 25.04 101.634 26.168 101.466 27.632H109.602C109.338 26 108.87 24.824 108.198 24.104C107.55 23.384 106.698 23.024 105.642 23.024ZM155.393 38V37.424L157.661 36.272V15.104L155.501 13.232V12.98L160.325 11H160.541V36.272L162.809 37.424V38H155.393ZM214.109 38.36C211.781 38.36 209.945 37.652 208.601 36.236C207.257 34.82 206.585 32.948 206.585 30.62C206.585 28.82 206.933 27.236 207.629 25.868C208.349 24.476 209.285 23.396 210.437 22.628C211.613 21.836 212.885 21.44 214.253 21.44C216.149 21.44 217.637 22.1 218.717 23.42C219.821 24.74 220.373 26.636 220.373 29.108L220.193 29.288H209.429C209.453 30.392 209.669 31.436 210.077 32.42C210.485 33.38 211.133 34.16 212.021 34.76C212.933 35.36 214.145 35.66 215.657 35.66C216.977 35.66 218.525 35.18 220.301 34.22H220.409V34.58C219.857 35.612 219.029 36.5 217.925 37.244C216.845 37.988 215.573 38.36 214.109 38.36ZM213.677 23.024C212.525 23.024 211.577 23.432 210.833 24.248C210.113 25.04 209.669 26.168 209.501 27.632H217.637C217.373 26 216.905 24.824 216.233 24.104C215.585 23.384 214.733 23.024 213.677 23.024Z" fill="#EA4335"/>
<path d="M56.7942 38.36C55.2102 38.36 53.8182 37.988 52.6182 37.244C51.4422 36.5 50.5182 35.492 49.8462 34.22C49.1982 32.948 48.8742 31.508 48.8742 29.9C48.8742 28.292 49.1982 26.852 49.8462 25.58C50.5182 24.308 51.4422 23.3 52.6182 22.556C53.8182 21.812 55.2102 21.44 56.7942 21.44C58.3782 21.44 59.7582 21.812 60.9342 22.556C62.1342 23.3 63.0582 24.308 63.7062 25.58C64.3782 26.852 64.7142 28.292 64.7142 29.9C64.7142 31.508 64.3782 32.948 63.7062 34.22C63.0582 35.492 62.1342 36.5 60.9342 37.244C59.7582 37.988 58.3782 38.36 56.7942 38.36ZM57.2982 36.812C58.2582 36.812 59.0502 36.512 59.6742 35.912C60.2982 35.312 60.7542 34.544 61.0422 33.608C61.3302 32.648 61.4742 31.652 61.4742 30.62C61.4742 29.348 61.2942 28.124 60.9342 26.948C60.5982 25.772 60.0462 24.812 59.2782 24.068C58.5342 23.324 57.5622 22.952 56.3622 22.952C55.3782 22.952 54.5742 23.252 53.9502 23.852C53.3262 24.452 52.8582 25.22 52.5462 26.156C52.2582 27.092 52.1142 28.088 52.1142 29.144C52.1142 30.416 52.2942 31.64 52.6542 32.816C53.0142 33.992 53.5782 34.952 54.3462 35.696C55.1142 36.44 56.0982 36.812 57.2982 36.812ZM115.988 30.008V27.488H125.888V30.008H115.988ZM174.111 38.36C172.527 38.36 171.135 37.988 169.935 37.244C168.759 36.5 167.835 35.492 167.163 34.22C166.515 32.948 166.191 31.508 166.191 29.9C166.191 28.292 166.515 26.852 167.163 25.58C167.835 24.308 168.759 23.3 169.935 22.556C171.135 21.812 172.527 21.44 174.111 21.44C175.695 21.44 177.075 21.812 178.251 22.556C179.451 23.3 180.375 24.308 181.023 25.58C181.695 26.852 182.031 28.292 182.031 29.9C182.031 31.508 181.695 32.948 181.023 34.22C180.375 35.492 179.451 36.5 178.251 37.244C177.075 37.988 175.695 38.36 174.111 38.36ZM174.615 36.812C175.575 36.812 176.367 36.512 176.991 35.912C177.615 35.312 178.071 34.544 178.359 33.608C178.647 32.648 178.791 31.652 178.791 30.62C178.791 29.348 178.611 28.124 178.251 26.948C177.915 25.772 177.363 24.812 176.595 24.068C175.851 23.324 174.879 22.952 173.679 22.952C172.695 22.952 171.891 23.252 171.267 23.852C170.643 24.452 170.175 25.22 169.863 26.156C169.575 27.092 169.431 28.088 169.431 29.144C169.431 30.416 169.611 31.64 169.971 32.816C170.331 33.992 170.895 34.952 171.663 35.696C172.431 36.44 173.415 36.812 174.615 36.812Z" fill="#FBBC05"/>
<path d="M87.752 38V37.424L90.02 36.272V15.104L87.86 13.232V12.98L92.684 11H92.9V36.272L95.168 37.424V38H87.752ZM185.56 38V37.424L187.828 36.272V25.544L185.668 23.672V23.42L190.132 21.44H190.348L190.672 24.104H190.852C191.764 23.192 192.64 22.52 193.48 22.088C194.344 21.656 195.292 21.44 196.324 21.44C197.74 21.44 198.892 21.8 199.78 22.52C200.692 23.216 201.148 24.26 201.148 25.652V36.272L203.416 37.424V38H195.712V37.424L198.268 36.272V27.344C198.268 26.288 197.932 25.484 197.26 24.932C196.612 24.38 195.76 24.104 194.704 24.104C194.056 24.104 193.336 24.212 192.544 24.428C191.776 24.644 191.164 24.956 190.708 25.364V36.272L193.264 37.424V38H185.56Z" fill="#34A853"/>
</svg>
